<?xml version="1.0" standalone="no"?>
<!DOCTYPE svg PUBLIC "-//W3C//DTD SVG 20010904//EN"
 "http://www.w3.org/TR/2001/REC-SVG-20010904/DTD/svg10.dtd">
<svg version="1.0" xmlns="http://www.w3.org/2000/svg"
 width="2000.000000pt" height="2000.000000pt" viewBox="0 0 2000.000000 2000.000000"
 preserveAspectRatio="xMidYMid meet">

<g transform="translate(0.000000,2000.000000) scale(0.100000,-0.100000)"
fill="#000000" stroke="none">
<path d="M14570 13749 c-149 -77 -365 -190 -555 -289 -49 -26 -207 -107 -350
-180 -143 -74 -321 -165 -395 -204 -75 -39 -201 -105 -282 -146 -80 -41 -144
-78 -142 -82 2 -3 50 -33 107 -66 56 -32 143 -83 192 -112 50 -29 107 -62 128
-73 20 -12 37 -27 37 -34 0 -7 -15 -37 -34 -66 -18 -28 -93 -153 -166 -277
-73 -124 -165 -279 -205 -345 -64 -107 -113 -190 -165 -280 -10 -16 -56 -93
-102 -170 -47 -77 -165 -275 -263 -440 -98 -165 -218 -366 -267 -448 -48 -81
-99 -169 -112 -195 -13 -27 -31 -54 -40 -61 -19 -16 -20 -15 -36 94 -12 82
-24 149 -40 220 -5 22 -23 114 -40 205 -18 91 -58 298 -90 460 -32 162 -61
312 -64 333 -7 35 -9 37 -46 37 -29 0 -42 -5 -50 -20 -6 -11 -8 -26 -4 -32 4
-6 3 -8 -3 -5 -16 10 -36 -20 -29 -40 4 -10 4 -14 0 -10 -7 7 -44 -30 -44 -45
0 -5 -9 -22 -20 -38 -11 -17 -29 -43 -40 -59 -11 -17 -33 -56 -50 -88 -17 -32
-48 -87 -70 -123 -21 -36 -57 -99 -81 -140 -23 -41 -64 -109 -90 -151 -27 -42
-49 -79 -49 -83 0 -3 -11 -25 -25 -49 l-26 -42 26 30 c14 17 31 42 38 58 12
27 27 36 27 17 0 -5 4 -10 9 -10 4 0 7 12 4 28 -3 25 -3 26 7 4 7 -17 5 -31
-7 -57 -9 -19 -20 -35 -25 -35 -11 0 -10 18 2 25 12 8 13 25 2 25 -5 0 -14
-12 -21 -27 -9 -20 -9 -28 0 -33 8 -5 0 -27 -26 -71 -21 -35 -49 -84 -63 -109
-14 -25 -36 -62 -49 -83 -13 -21 -32 -53 -42 -70 -10 -18 -53 -92 -95 -165
-42 -73 -76 -137 -76 -142 0 -6 -4 -10 -10 -10 -5 0 -10 -5 -10 -10 0 -6 -19
-43 -43 -83 -24 -39 -52 -89 -62 -109 -11 -21 -23 -38 -26 -38 -14 0 -30 -63
-19 -74 7 -7 10 -6 10 4 0 7 3 10 6 7 4 -4 1 -13 -6 -22 -9 -11 -9 -19 -2 -28
6 -7 9 -30 6 -51 -2 -20 0 -35 4 -32 5 3 10 -18 11 -45 1 -28 5 -59 10 -68 4
-9 11 -36 15 -61 4 -25 11 -67 16 -95 6 -27 14 -75 20 -105 6 -30 15 -77 21
-105 5 -27 14 -72 19 -100 14 -76 29 -155 40 -210 20 -95 31 -150 39 -205 5
-30 16 -92 26 -138 l18 -82 731 2 731 3 113 190 c62 105 131 222 154 260 73
124 448 755 538 905 48 80 131 219 185 310 54 91 180 302 280 470 460 772 658
1104 725 1218 40 68 78 126 86 129 7 3 36 -9 64 -26 28 -17 52 -31 53 -31 2 0
63 -36 136 -80 109 -65 141 -80 175 -80 l41 0 -2 142 c-2 79 -7 310 -13 513
-5 204 -15 579 -20 835 -6 256 -12 503 -13 550 l-2 85 -45 3 c-39 2 -65 -8
-200 -79z m-3239 -2682 c-10 -9 -11 -8 -5 6 3 10 9 15 12 12 3 -3 0 -11 -7
-18z m-33 -62 c-6 -14 -15 -25 -20 -25 -5 0 -1 11 8 25 9 14 18 25 20 25 2 0
-2 -11 -8 -25z m-43 -56 c11 -16 1 -19 -13 -3 -7 8 -8 14 -3 14 5 0 13 -5 16
-11z m-15 -39 c0 -5 -5 -10 -11 -10 -5 0 -7 5 -4 10 3 6 8 10 11 10 2 0 4 -4
4 -10z m-33 -57 l-15 -28 1 27 c1 14 5 24 10 21 4 -2 7 1 7 8 0 7 3 10 6 7 3
-4 -1 -19 -9 -35z m584 -782 c-9 -6 -11 -16 -7 -27 4 -10 4 -15 0 -12 -3 4
-15 -3 -25 -15 -16 -19 -18 -20 -19 -4 0 9 5 17 10 17 6 0 15 11 20 25 5 14
15 25 22 25 10 0 9 -3 -1 -9z m-91 -53 c0 -7 -5 -20 -10 -28 -8 -12 -10 -9
-10 13 0 15 5 27 10 27 6 0 10 -6 10 -12z m-180 -33 c0 -11 -11 -15 -40 -15
-29 0 -40 4 -40 15 0 11 11 15 40 15 29 0 40 -4 40 -15z m190 -35 c0 -5 -4
-10 -10 -10 -5 0 -10 5 -10 10 0 6 5 10 10 10 6 0 10 -4 10 -10z m0 -54 c0 -3
-4 -8 -10 -11 -5 -3 -10 -1 -10 4 0 6 5 11 10 11 6 0 10 -2 10 -4z m-910 -41
c0 -11 -12 -15 -50 -15 -76 0 -65 28 13 29 27 1 37 -3 37 -14z m-139 -19 c-6
-7 -7 -17 -3 -21 4 -5 -1 -5 -10 -2 -11 4 -18 2 -18 -5 0 -6 -3 -8 -6 -5 -10
10 25 59 37 51 7 -4 6 -10 0 -18z m36 -388 c-3 -7 -5 -2 -5 12 0 14 2 19 5 13
2 -7 2 -19 0 -25z"/>
<path d="M11061 10669 c-7 -16 -11 -33 -7 -36 3 -3 10 7 16 22 6 15 13 32 16
36 3 5 2 9 -3 9 -4 0 -14 -14 -22 -31z"/>
<path d="M11036 10673 c-6 -14 -5 -15 5 -6 7 7 10 15 7 18 -3 3 -9 -2 -12 -12z"/>
<path d="M10986 10547 c3 -10 9 -15 12 -12 3 3 0 11 -7 18 -10 9 -11 8 -5 -6z"/>
<path d="M10960 10535 c0 -5 5 -17 10 -25 5 -8 10 -10 10 -5 0 6 -5 17 -10 25
-5 8 -10 11 -10 5z"/>
<path d="M8295 10178 c-43 -73 -90 -153 -105 -178 -15 -25 -72 -121 -127 -215
-55 -93 -151 -254 -212 -357 -61 -102 -111 -189 -111 -193 0 -17 145 -213 154
-208 5 3 6 1 2 -5 -5 -8 30 -61 55 -82 3 -3 9 -13 12 -24 5 -11 13 -16 23 -12
8 3 13 2 9 -3 -10 -18 6 -41 23 -33 26 11 55 8 58 -6 1 -7 0 -8 -3 -2 -3 6
-13 1 -25 -12 l-20 -23 6 25 c6 23 6 23 -5 6 -10 -16 -8 -22 12 -39 13 -11 23
-25 21 -31 -2 -7 1 -6 9 2 7 6 17 12 22 12 5 0 1 -7 -8 -16 -9 -10 -12 -20 -7
-23 5 -3 14 -16 21 -29 7 -12 17 -20 23 -16 6 4 8 3 4 -4 -3 -6 14 -39 39 -74
25 -35 68 -96 96 -136 l52 -72 676 4 c372 2 682 5 688 5 14 1 40 40 121 181
41 71 55 105 56 137 1 22 -2 39 -6 36 -5 -2 -8 5 -8 16 0 18 -6 21 -40 21
l-40 0 0 40 0 40 -40 0 c-36 0 -40 3 -40 25 0 23 -4 25 -40 25 -29 0 -40 4
-40 15 0 11 -11 15 -40 15 l-40 0 0 40 0 40 -80 0 -80 0 0 40 0 40 -40 0 c-36
0 -40 3 -40 25 0 23 -4 25 -40 25 -29 0 -40 4 -40 15 0 11 -11 15 -40 15 l-40
0 0 40 0 40 -80 0 c-72 0 -80 2 -80 19 0 28 -11 52 -21 46 -4 -3 -6 -12 -3
-20 3 -7 -4 -18 -15 -25 -12 -6 -21 -20 -21 -30 0 -24 -25 -27 -34 -4 -4 9 -4
19 -1 22 3 3 5 2 5 -2 0 -4 8 -2 18 3 16 9 20 26 13 61 -1 3 -6 -2 -11 -10 -5
-8 -10 -10 -10 -4 0 5 7 19 15 30 13 16 16 17 25 4 8 -13 10 -13 10 2 0 9 -4
20 -10 23 -6 4 0 21 15 43 26 38 31 58 17 64 -4 2 -37 46 -74 98 -36 52 -143
201 -236 330 -94 129 -190 261 -213 293 -23 31 -44 57 -48 57 -4 0 -42 -60
-86 -132z m286 -251 c-10 -9 -11 -8 -5 6 3 10 9 15 12 12 3 -3 0 -11 -7 -18z
m33 -43 c3 -8 2 -12 -4 -9 -6 3 -10 10 -10 16 0 14 7 11 14 -7z m43 -39 c0 -8
-4 -12 -9 -9 -5 3 -6 10 -3 15 9 13 12 11 12 -6z m-47 -72 c0 -5 -12 -16 -25
-26 -29 -21 -36 -2 -7 19 19 15 32 18 32 7z m-54 -90 c-10 -10 -19 5 -10 18 6
11 8 11 12 0 2 -7 1 -15 -2 -18z m-76 -148 c0 -8 -7 -15 -16 -15 -14 0 -14 3
-4 15 7 8 14 15 16 15 2 0 4 -7 4 -15z m-85 -105 c-3 -5 -10 -10 -16 -10 -5 0
-9 5 -9 10 0 6 7 10 16 10 8 0 12 -4 9 -10z m-79 -147 c-10 -10 -19 5 -10 18
6 11 8 11 12 0 2 -7 1 -15 -2 -18z m530 -20 c-6 -15 -9 -15 -16 -3 -6 9 -5 17
3 22 16 10 21 2 13 -19z m-691 -233 c-3 -5 -10 -10 -16 -10 -5 0 -9 5 -9 10 0
6 7 10 16 10 8 0 12 -4 9 -10z m-38 -292 c-3 -8 -6 -5 -6 6 -1 11 2 17 5 13 3
-3 4 -12 1 -19z m1683 2 c0 -6 -7 -13 -15 -16 -8 -4 -15 -16 -16 -28 0 -11 -3
-15 -6 -8 -8 21 6 62 22 62 8 0 15 -5 15 -10z"/>
<path d="M9015 9552 c-15 -10 -16 -29 -2 -29 7 0 13 9 13 19 0 10 0 18 -1 18
0 0 -4 -4 -10 -8z"/>
<path d="M9871 8764 c0 -11 3 -14 6 -6 3 7 2 16 -1 19 -3 4 -6 -2 -5 -13z"/>
<path d="M8510 7520 c-166 -21 -315 -124 -385 -265 -14 -28 -32 -89 -41 -135
-14 -71 -14 -96 -4 -160 17 -104 65 -204 129 -268 68 -69 111 -95 205 -126
158 -53 342 -20 473 85 175 141 225 435 109 633 -69 118 -215 217 -341 231
-33 4 -67 8 -75 9 -8 2 -40 0 -70 -4z m176 -226 c43 -19 109 -93 125 -140 19
-56 16 -199 -5 -248 -45 -106 -121 -156 -236 -156 -160 0 -260 108 -260 279 0
156 71 255 200 282 46 9 137 1 176 -17z"/>
<path d="M5992 7504 c-85 -23 -155 -62 -209 -117 -106 -110 -136 -189 -136
-352 0 -118 8 -152 56 -253 32 -65 110 -147 170 -178 53 -28 136 -53 195 -59
77 -8 252 18 252 38 0 6 3 8 6 4 15 -14 86 34 152 103 35 37 102 151 102 174
0 9 -260 7 -260 -1 -1 -19 -69 -83 -104 -97 -57 -24 -151 -20 -206 8 -89 45
-147 160 -137 272 8 93 16 118 55 169 54 70 105 95 197 95 40 0 77 -4 80 -10
3 -5 13 -10 21 -10 19 0 82 -57 89 -81 6 -17 18 -19 130 -19 68 0 126 4 129 8
3 5 -8 37 -25 72 -34 73 -126 167 -194 199 -108 51 -254 65 -363 35z"/>
<path d="M7233 7513 c-18 -2 -33 -8 -33 -11 0 -4 -11 -9 -25 -10 -30 -2 -66
-20 -129 -62 -78 -53 -130 -128 -166 -243 -19 -58 -21 -84 -18 -175 5 -103 30
-212 50 -212 4 0 8 -7 8 -15 0 -44 157 -195 202 -195 8 0 18 -4 24 -8 49 -43
270 -50 369 -12 77 30 120 57 173 111 41 42 102 147 102 176 0 10 -27 13 -124
13 l-123 0 -25 -37 c-38 -57 -95 -83 -183 -83 -41 0 -77 5 -80 10 -3 6 -14 10
-24 10 -44 0 -117 104 -136 192 -22 109 7 219 77 284 52 50 89 64 166 64 82 0
118 -16 175 -76 l42 -44 117 0 c88 0 118 3 118 13 0 22 -49 116 -80 156 -42
51 -101 93 -180 126 -53 21 -84 27 -165 30 -55 2 -115 1 -132 -2z"/>
<path d="M14793 7510 c-139 -30 -284 -148 -324 -265 -7 -22 -17 -45 -21 -51
-4 -5 -13 -43 -19 -83 -34 -207 71 -426 245 -510 94 -46 133 -55 241 -55 107
0 190 21 265 69 63 40 154 142 165 185 1 3 9 22 18 42 12 27 17 66 17 138 0
55 -3 100 -7 100 -5 0 -119 2 -256 3 l-247 2 0 -82 0 -83 149 0 148 0 -5 -25
c-6 -34 -76 -111 -119 -132 -55 -26 -184 -22 -247 8 -50 23 -95 75 -122 138
-22 53 -19 201 6 255 46 96 127 146 238 146 58 0 75 -4 113 -28 24 -16 53 -39
63 -50 18 -20 29 -22 143 -22 67 0 123 3 123 6 0 3 -14 36 -32 72 -35 74 -107
152 -159 172 -19 7 -53 22 -77 33 -49 22 -226 33 -299 17z"/>
<path d="M4780 7508 c0 -2 -20 -59 -44 -128 -24 -69 -49 -141 -56 -160 -6 -19
-16 -44 -20 -55 -10 -21 -29 -75 -75 -210 -16 -44 -34 -93 -41 -110 -7 -16
-20 -52 -29 -80 -9 -27 -20 -59 -24 -70 -24 -57 -51 -129 -51 -136 0 -5 53 -9
118 -9 l118 0 13 48 c8 26 17 52 21 57 4 6 10 22 14 38 l6 27 187 -2 186 -3
26 -80 26 -80 124 -3 c115 -2 123 -1 116 15 -4 10 -18 45 -30 78 -12 33 -32
87 -44 120 -13 33 -40 110 -61 170 -39 111 -80 222 -146 403 -20 53 -41 113
-48 132 l-13 35 -136 3 c-76 1 -137 1 -137 0z m170 -328 c0 -8 16 -60 36 -115
41 -117 54 -162 46 -169 -3 -4 -56 -6 -119 -6 -92 0 -113 3 -113 14 0 14 63
209 97 304 l16 43 18 -28 c11 -15 19 -35 19 -43z"/>
<path d="M9360 7193 c0 -234 4 -331 14 -368 39 -146 106 -217 251 -267 37 -12
76 -16 151 -14 90 3 107 7 175 38 96 46 145 98 187 198 25 60 32 158 32 437
l0 293 -121 0 -121 0 4 -322 c3 -360 3 -360 -65 -412 -28 -21 -45 -26 -94 -26
-100 0 -160 40 -177 116 -4 17 -7 168 -8 337 l-2 307 -113 0 -113 0 0 -317z"/>
<path d="M10500 7030 l0 -480 115 0 115 0 0 289 c0 165 4 292 9 295 5 4 20
-11 32 -31 13 -21 99 -154 192 -295 l169 -258 114 0 114 0 0 480 0 480 -110 0
c-81 0 -110 -3 -110 -12 0 -7 0 -135 0 -284 0 -149 -2 -279 -6 -288 -6 -16 -8
-16 -25 0 -11 9 -19 23 -19 31 0 7 -49 86 -108 176 -59 89 -139 210 -177 269
l-70 107 -117 1 -118 0 0 -480z"/>
<path d="M11650 7420 l0 -89 131 -3 131 -3 -1 -387 -2 -388 115 0 116 0 0 390
0 390 130 0 130 0 0 90 0 90 -375 0 -375 0 0 -90z"/>
<path d="M12690 7030 l0 -480 115 0 115 0 0 480 0 480 -115 0 -115 0 0 -480z"/>
<path d="M13260 7030 l0 -480 115 0 115 0 2 298 3 297 80 -120 c44 -67 85
-128 90 -137 6 -9 37 -56 69 -104 33 -49 80 -120 105 -159 l46 -70 118 -3 117
-3 0 481 -1 480 -114 0 -115 0 0 -297 -1 -298 -25 30 c-14 17 -44 59 -67 94
-23 36 -46 71 -52 80 -5 8 -65 100 -132 203 l-122 188 -116 0 -115 0 0 -480z"/>
</g>
</svg>
